Coordinates
version=1
nRows=5
nColumns=40
inDegrees=yes

Units are S.I. units (second, meters, Newtons, ...)
If the header above contains a line with 'inDegrees', this indicates whether rotational values are in degrees (yes) or radians (no).

endheader
time	pelvis_tilt	pelvis_list	pelvis_rotation	pelvis_tx	pelvis_ty	pelvis_tz	hip_flexion_r	hip_adduction_r	hip_rotation_r	knee_angle_r	knee_angle_r_beta	ankle_angle_r	subtalar_angle_r	mtp_angle_r	hip_flexion_l	hip_adduction_l	hip_rotation_l	knee_angle_l	knee_angle_l_beta	ankle_angle_l	subtalar_angle_l	mtp_angle_l	lumbar_extension	lumbar_bending	lumbar_rotation	arm_flex_r	arm_add_r	arm_rot_r	elbow_flex_r	pro_sup_r	wrist_flex_r	wrist_dev_r	arm_flex_l	arm_add_l	arm_rot_l	elbow_flex_l	pro_sup_l	wrist_flex_l	wrist_dev_l
      0.90400000	     21.19516916	      1.83755786	      3.36812576	      1.38163799	      0.98500373	     -0.38681086	     -4.19442763	     -5.59700523	     -7.84307243	     42.72790660	      0.74574265	     -5.05418569	      0.00000000	      0.00000000	    -23.85353451	      4.34215344	      7.23872314	     10.44427648	      0.18228701	     -6.17924823	      0.00000000	      0.00000000	    -33.90841589	     -0.60677378	     -6.34105323	     -1.79623732	    -17.99719991	     12.92101604	     46.75357298	     77.60602615	      0.00000000	      0.00000000	      4.93840295	    -26.74559282	     23.90356397	     57.20893819	     71.17424073	      0.00000000	      0.00000000
      0.90800000	     21.01571841	      1.91329423	      3.32771215	      1.38681578	      0.98460810	     -0.38677291	     -3.62899996	     -5.58093425	     -7.59029635	     41.81572366	      0.72982206	     -4.85902492	      0.00000000	      0.00000000	    -24.24311478	      4.41248068	      7.36162124	     10.01517059	      0.17479770	     -6.14206860	      0.00000000	      0.00000000	    -33.76490164	     -0.70385010	     -6.43150550	     -1.78172051	    -17.84507863	     12.61229151	     46.65378837	     77.53473065	      0.00000000	      0.00000000	      5.06504484	    -26.95020975	     24.16447001	     57.60004549	     71.21979425	      0.00000000	      0.00000000
      0.91200000	     21.10131789	      2.07332261	      3.55419633	      1.39214487	      0.98451459	     -0.38738898	     -3.44149419	     -5.80523423	     -8.36729831	     40.77241796	      0.71161294	     -4.89283729	      0.00000000	      0.00000000	    -25.05513457	      4.45633873	      7.71195369	      9.30292207	      0.16236662	     -6.33369232	      0.00000000	      0.00000000	    -33.87893097	     -0.69552392	     -6.73395464	     -1.90074740	    -17.86134029	     12.48214900	     46.76772813	     77.37775815	      0.00000000	      0.00000000	      5.33491560	    -27.06899709	     24.41851348	     57.74987056	     71.22152249	      0.00000000	      0.00000000
      0.91600000	     20.96164052	      2.16914353	      3.56434756	      1.39671708	      0.98395791	     -0.38766017	     -2.78274062	     -5.90111350	     -8.28292594	     40.10636229	      0.69998807	     -4.88387668	      0.00000000	      0.00000000	    -25.29885518	      4.54910356	      7.62376869	      9.16417914	      0.15994510	     -6.22436008	      0.00000000	      0.00000000	    -33.82028400	     -0.75766235	     -6.92535516	     -1.97121154	    -17.99514464	     12.61017810	     47.11345843	     77.35668135	      0.00000000	      0.00000000	      5.54281865	    -27.17864577	     24.47543316	     58.02873968	     71.23158107	      0.00000000	      0.00000000
      0.92000000	     20.82414996	      2.30026117	      3.58388285	      1.40152102	      0.98339791	     -0.38789572	     -2.19778011	     -6.02558950	     -8.29158864	     39.31204009	      0.68612454	     -4.84106531	      0.00000000	      0.00000000	    -25.58806726	      4.67755102	      7.56707298	      8.99848481	      0.15705319	     -6.07088161	      0.00000000	      0.00000000	    -33.77910655	     -0.85319834	     -7.05373055	     -1.88315283	    -17.90253314	     12.42248858	     46.95017029	     77.31598428	      0.00000000	      0.00000000	      5.78796933	    -27.27642057	     24.61882104	     58.29943831	     71.28676174	      0.00000000	      0.00000000
